<svg width="110" height="110" viewBox="0 0 110 110" fill="none" xmlns="http://www.w3.org/2000/svg">
<circle cx="55" cy="55" r="55" fill="#20B2FF"/>
<path fill-rule="evenodd" clip-rule="evenodd" d="M27.825 52.3176C28.8475 51.8926 27.575 51.6926 39.3875 49.2701C45.3325 48.0451 55.125 45.8476 61.47 44.7501C61.6823 44.7097 61.8706 44.5887 61.9955 44.4124C62.1204 44.2361 62.1721 44.0183 62.1397 43.8046C62.1073 43.591 61.9934 43.3983 61.8219 43.2669C61.6504 43.1355 61.4347 43.0757 61.22 43.1001C56.225 43.7251 31.745 47.3501 26.7225 49.5451C25.3475 50.0201 25 50.7701 25 51.7201C25.7125 60.0476 27 68.3201 28.8475 76.4726C28.9057 76.6552 29.0316 76.8087 29.1995 76.9014C29.3673 76.9941 29.5643 77.019 29.7499 76.971C29.9355 76.923 30.0957 76.8057 30.1976 76.6433C30.2994 76.4808 30.3352 76.2855 30.2975 76.0975C29.0652 68.2186 28.2391 60.2814 27.8225 52.3176M78.78 57.5126C78.717 57.3486 78.5984 57.212 78.4449 57.1265C78.2914 57.041 78.1128 57.0122 77.9402 57.0449C77.7676 57.0776 77.612 57.1699 77.5005 57.3056C77.389 57.4413 77.3286 57.6119 77.33 57.7876C77.905 61.4126 78.38 64.6826 78.555 66.2551C45.5325 72.1026 33.8425 75.5501 32.4925 75.3001C32.2862 75.2827 32.0806 75.3413 31.9144 75.4647C31.7482 75.5882 31.6327 75.7681 31.5898 75.9707C31.5468 76.1732 31.5792 76.3845 31.681 76.5648C31.7828 76.7452 31.9469 76.8821 32.1425 76.9501C34.6425 77.5251 79.405 69.0826 80.4025 67.6075C80.9275 66.8575 79.9525 63.3076 78.78 57.5126Z" fill="white"/>
<path fill-rule="evenodd" clip-rule="evenodd" d="M81.3518 33.7075C79.8018 33.1075 77.0568 32.4825 75.9068 33.7075C73.0318 32.0825 70.5368 33.7075 68.7868 36.6075C68.4618 37.1325 67.3868 39.105 66.6893 40.4525C65.9893 41.8025 65.7393 42.1025 65.7893 42.5525C65.7741 42.6868 65.7981 42.8225 65.8583 42.9434C65.9185 43.0643 66.0124 43.1651 66.1287 43.2339C66.245 43.3026 66.3787 43.3362 66.5136 43.3306C66.6486 43.3251 66.779 43.2806 66.8893 43.2025C67.0893 43.2025 69.9118 39.7025 70.0618 39.5025C71.4368 37.78 73.5343 34.2575 75.0568 35.2325C73.4679 37.6886 72.0977 40.2794 70.9618 42.975C70.9618 43.275 70.1118 42.975 75.3818 46.6475L76.1318 47.1475C74.1818 50.245 67.9393 59.1875 67.3143 59.9625C66.6393 60.595 65.8393 61.08 64.9643 61.3875C64.3585 60.2295 63.9857 58.964 63.8668 57.6625L70.3368 46.75C70.386 46.6647 70.418 46.5705 70.4308 46.4728C70.4436 46.3751 70.4371 46.2758 70.4115 46.1806C70.386 46.0854 70.342 45.9962 70.282 45.918C70.2219 45.8399 70.1471 45.7743 70.0618 45.725C69.9764 45.6758 69.8822 45.6439 69.7845 45.631C69.6868 45.6182 69.5875 45.6247 69.4923 45.6503C69.3971 45.6758 69.3079 45.7198 69.2298 45.7798C69.1516 45.8399 69.086 45.9147 69.0368 46C67.5368 48.5 61.7193 55.6925 61.3193 57.0425C61.0943 59.3 61.6793 61.5675 62.9693 63.435C63.3048 63.7299 63.7132 63.9295 64.152 64.013C64.5907 64.0965 65.0439 64.061 65.4643 63.91C67.0025 63.4781 68.4218 62.7009 69.6143 61.6375C70.6618 60.1875 77.7793 48.15 77.8793 47.55C79.3793 47.2 80.5543 45.275 83.0018 42.08C83.8669 40.9731 84.5265 39.7199 84.9493 38.38C85.3243 35.835 83.5493 34.6325 81.3518 33.7075ZM82.0018 38.3075C81.8018 38.9075 77.9793 45.95 76.4818 45.0525L72.8093 42.8025C72.9593 42.3275 72.5343 43.3275 77.1568 36.4075C77.8568 35.3575 76.8568 35.3075 78.8043 35.7825C79.8268 36.0575 80.8043 36.4775 81.7018 37.0325C81.8927 37.1767 82.0272 37.383 82.082 37.6159C82.1368 37.8487 82.1084 38.0934 82.0018 38.3075ZM56.9493 65.8075C57.0961 65.7871 57.2356 65.7306 57.3554 65.6432C57.4751 65.5558 57.5715 65.4402 57.6358 65.3066C57.7001 65.173 57.7304 65.0256 57.7241 64.8775C57.7177 64.7294 57.6748 64.5851 57.5993 64.4575C57.3179 64.0857 56.9598 63.7787 56.5493 63.5575C55.4783 63.3998 54.3849 63.5835 53.4243 64.0825C52.7493 61.01 51.4018 58.6375 48.4293 59.4625C47.2685 59.8817 46.2403 60.6024 45.4503 61.5506C44.6603 62.4988 44.137 63.6402 43.9343 64.8575C43.6343 66.3075 43.1593 68.63 44.6093 68.38C44.7121 68.3717 44.812 68.3415 44.9022 68.2914C44.9924 68.2413 45.0709 68.1726 45.1325 68.0898C45.194 68.0069 45.2371 67.9119 45.259 67.8111C45.2809 67.7103 45.281 67.6059 45.2593 67.5051C45.3676 66.7701 45.5259 66.045 45.7343 65.33C46.0119 64.56 46.4657 63.8655 47.0595 63.3021C47.6534 62.7386 48.3707 62.3219 49.1543 62.085C50.1043 61.835 50.7293 63.96 51.0293 64.9325C51.0293 65.2575 51.2293 66.9075 52.3268 67.1075C52.5171 67.1621 52.7174 67.1724 52.9124 67.1378C53.1074 67.1031 53.2919 67.0244 53.4518 66.9075C54.5883 66.4559 55.7589 66.0882 56.9493 65.8075ZM40.1618 54.765C43.8093 54.115 42.6618 53.99 48.4293 53.015C48.6461 52.9725 48.8379 52.8472 48.9639 52.6656C49.0899 52.4841 49.1403 52.2606 49.1043 52.0425C49.0128 51.8216 48.8561 51.6338 48.6551 51.5042C48.4541 51.3747 48.2183 51.3095 47.9793 51.3175C44.6924 51.3309 41.4142 51.6574 38.1893 52.2925C35.8426 52.9709 33.5526 53.8042 31.3193 54.7925C31.2386 54.9149 31.1943 55.0576 31.1915 55.2042C31.1887 55.3507 31.2275 55.495 31.3034 55.6203C31.3793 55.7457 31.4892 55.847 31.6203 55.9124C31.7515 55.9779 31.8985 56.0048 32.0443 55.99C32.6943 55.915 39.5618 54.865 40.1618 54.765ZM32.4943 60.46C32.2443 60.685 32.1443 61.535 33.2193 61.71C35.4911 61.9396 37.7765 61.4312 39.7368 60.26C39.8437 60.2391 39.9454 60.1973 40.0361 60.1369C40.1267 60.0764 40.2045 59.9986 40.2649 59.908C40.3254 59.8174 40.3673 59.7156 40.3882 59.6087C40.4091 59.5018 40.4086 59.3918 40.3868 59.285C40.1868 57.8625 34.6668 58.6625 32.4943 60.46ZM61.4943 48.0225C58.9775 48.2126 56.4746 48.5549 53.9993 49.0475C53.6375 49.1313 53.3227 49.353 53.1219 49.6653C52.9211 49.9777 52.8502 50.3562 52.9243 50.72C54.4993 57.3625 54.8743 57.3125 58.2718 56.465C58.4902 56.4311 58.6864 56.3122 58.8175 56.1343C58.9486 55.9563 59.0041 55.7337 58.9718 55.515C58.9565 55.4062 58.9197 55.3014 58.8634 55.207C58.8072 55.1126 58.7326 55.0303 58.6441 54.9651C58.5556 54.8999 58.455 54.853 58.3481 54.8272C58.2412 54.8015 58.1303 54.7973 58.0218 54.815C57.4218 54.815 56.7718 54.69 56.4718 54.815C56.0468 51.7925 56.1468 52.5175 55.9718 51.5425C57.9468 50.9675 59.4718 50.3425 61.7693 49.545C61.9677 49.5046 62.1423 49.3881 62.2559 49.2205C62.3695 49.0528 62.413 48.8474 62.3771 48.6481C62.3411 48.4489 62.2286 48.2716 62.0637 48.1542C61.8987 48.0368 61.6943 47.9912 61.4943 48.0225Z" fill="white"/>
</svg>
