<svg width="110" height="110" viewBox="0 0 110 110" fill="none" xmlns="http://www.w3.org/2000/svg">
<circle cx="55" cy="55" r="55" fill="#20B2FF"/>
<path d="M75 80V72.5C75 65.43 75 61.8925 72.8025 59.6975C70.6075 57.5 67.07 57.5 60 57.5L55 62.5L50 57.5C42.93 57.5 39.3925 57.5 37.1975 59.6975C35 61.8925 35 65.43 35 72.5V80M65 57.5V71.25" stroke="white" stroke-width="2" stroke-linecap="round" stroke-linejoin="round"/>
<path d="M46.25 57.5V67.5M46.25 67.5C47.5761 67.5 48.8479 68.0268 49.7855 68.9645C50.7232 69.9021 51.25 71.1739 51.25 72.5V75M46.25 67.5C44.9239 67.5 43.6521 68.0268 42.7145 68.9645C41.7768 69.9021 41.25 71.1739 41.25 72.5V75M63.75 41.25V38.75C63.75 37.6009 63.5237 36.4631 63.0839 35.4015C62.6442 34.3399 61.9997 33.3753 61.1872 32.5628C60.3747 31.7503 59.4101 31.1058 58.3485 30.6661C57.2869 30.2263 56.1491 30 55 30C53.8509 30 52.7131 30.2263 51.6515 30.6661C50.5899 31.1058 49.6253 31.7503 48.8128 32.5628C48.0003 33.3753 47.3558 34.3399 46.9161 35.4015C46.4763 36.4631 46.25 37.6009 46.25 38.75V41.25C46.25 42.3991 46.4763 43.5369 46.9161 44.5985C47.3558 45.6601 48.0003 46.6247 48.8128 47.4372C49.6253 48.2497 50.5899 48.8942 51.6515 49.3339C52.7131 49.7737 53.8509 50 55 50C56.1491 50 57.2869 49.7737 58.3485 49.3339C59.4101 48.8942 60.3747 48.2497 61.1872 47.4372C61.9997 46.6247 62.6442 45.6601 63.0839 44.5985C63.5237 43.5369 63.75 42.3991 63.75 41.25ZM66.875 73.125C66.875 73.6223 66.6775 74.0992 66.3258 74.4508C65.9742 74.8025 65.4973 75 65 75C64.5027 75 64.0258 74.8025 63.6742 74.4508C63.3225 74.0992 63.125 73.6223 63.125 73.125C63.125 72.6277 63.3225 72.1508 63.6742 71.7992C64.0258 71.4475 64.5027 71.25 65 71.25C65.4973 71.25 65.9742 71.4475 66.3258 71.7992C66.6775 72.1508 66.875 72.6277 66.875 73.125Z" stroke="white" stroke-width="2" stroke-linecap="round" stroke-linejoin="round"/>
</svg>
