<svg width="110" height="110" viewBox="0 0 110 110" fill="none" xmlns="http://www.w3.org/2000/svg">
<circle cx="55" cy="55" r="55" fill="#20B2FF"/>
<path d="M48.7316 57.3187V51.74M61.2691 57.3187V51.74M56.0566 32.3962L62.2866 46.31C62.3685 46.4952 62.4979 46.6555 62.6616 46.7747C62.8254 46.8939 63.0177 46.9677 63.2191 46.9887L78.3779 48.6137C78.5998 48.6377 78.81 48.7254 78.9832 48.8661C79.1564 49.0068 79.2853 49.1946 79.3542 49.4069C79.4232 49.6192 79.4293 49.8469 79.3718 50.0625C79.3144 50.2782 79.1958 50.4727 79.0304 50.6225L67.7216 60.8475C67.572 60.9835 67.4605 61.1561 67.398 61.3483C67.3356 61.5406 67.3243 61.7458 67.3654 61.9437L70.5041 76.8625C70.5498 77.0809 70.5314 77.3079 70.4511 77.5161C70.3708 77.7244 70.232 77.9049 70.0514 78.0361C69.8709 78.1673 69.6562 78.2434 69.4334 78.2554C69.2105 78.2674 68.989 78.2147 68.7954 78.1037L55.5766 70.5075C55.4011 70.4073 55.2025 70.3546 55.0004 70.3546C54.7983 70.3546 54.5996 70.4073 54.4241 70.5075L41.2054 78.1037C41.0117 78.2151 40.79 78.2681 40.5669 78.2563C40.3439 78.2445 40.129 78.1684 39.9482 78.0372C39.7674 77.9059 39.6285 77.7252 39.5481 77.5168C39.4678 77.3083 39.4494 77.0811 39.4954 76.8625L42.6354 61.9437C42.6766 61.7456 42.6655 61.5401 42.603 61.3477C42.5405 61.1552 42.4289 60.9823 42.2791 60.8462L30.9704 50.6212C30.8049 50.4714 30.6863 50.277 30.6289 50.0613C30.5714 49.8456 30.5775 49.6179 30.6465 49.4057C30.7154 49.1934 30.8443 49.0056 31.0175 48.8649C31.1907 48.7241 31.401 48.6365 31.6229 48.6125L46.7816 46.9875C46.9825 46.9654 47.1742 46.8912 47.3377 46.7724C47.5013 46.6536 47.631 46.4942 47.7141 46.31L53.9441 32.3962C54.0354 32.1925 54.1837 32.0195 54.3712 31.8981C54.5586 31.7767 54.7771 31.7122 55.0004 31.7122C55.2236 31.7122 55.4422 31.7767 55.6296 31.8981C55.817 32.0195 55.9653 32.1925 56.0566 32.3962Z" stroke="white" stroke-width="2" stroke-linecap="round" stroke-linejoin="round"/>
</svg>
