<svg width="110" height="110" viewBox="0 0 110 110" fill="none" xmlns="http://www.w3.org/2000/svg">
<circle cx="55" cy="55" r="55" fill="#20B2FF"/>
<path d="M47 53C44.3478 53 41.8043 51.9464 39.9289 50.0711C38.0536 48.1957 37 45.6522 37 43V35C37 34.4696 37.2107 33.9609 37.5858 33.5858C37.9609 33.2107 38.4696 33 39 33H41C41.5304 33 42.0391 32.7893 42.4142 32.4142C42.7893 32.0391 43 31.5304 43 31C43 30.4696 42.7893 29.9609 42.4142 29.5858C42.0391 29.2107 41.5304 29 41 29H39C37.4087 29 35.8826 29.6321 34.7574 30.7574C33.6321 31.8826 33 33.4087 33 35V43C33.0026 45.2595 33.5535 47.4846 34.6056 49.4842C35.6577 51.4838 37.1794 53.1981 39.04 54.48C40.8295 56.0545 42.2804 57.9762 43.3049 60.1283C44.3294 62.2805 44.9061 64.6183 45 67C45 70.713 46.475 74.274 49.1005 76.8995C51.726 79.525 55.287 81 59 81C62.713 81 66.274 79.525 68.8995 76.8995C71.525 74.274 73 70.713 73 67V64.72C74.8853 64.2332 76.5284 63.0755 77.6212 61.464C78.714 59.8524 79.1816 57.8976 78.9362 55.966C78.6909 54.0344 77.7495 52.2585 76.2885 50.9714C74.8274 49.6842 72.9471 48.974 71 48.974C69.0529 48.974 67.1726 49.6842 65.7115 50.9714C64.2505 52.2585 63.3091 54.0344 63.0638 55.966C62.8184 57.8976 63.286 59.8524 64.3788 61.464C65.4716 63.0755 67.1147 64.2332 69 64.72V67C69 69.6522 67.9464 72.1957 66.0711 74.0711C64.1957 75.9464 61.6522 77 59 77C56.3478 77 53.8043 75.9464 51.9289 74.0711C50.0536 72.1957 49 69.6522 49 67C49.0989 64.6153 49.6819 62.2757 50.7133 60.1234C51.7448 57.9711 53.2032 56.051 55 54.48C56.8533 53.1937 58.3672 51.4774 59.4121 49.478C60.4571 47.4787 61.0019 45.2559 61 43V35C61 33.4087 60.3679 31.8826 59.2426 30.7574C58.1174 29.6321 56.5913 29 55 29H53C52.4696 29 51.9609 29.2107 51.5858 29.5858C51.2107 29.9609 51 30.4696 51 31C51 31.5304 51.2107 32.0391 51.5858 32.4142C51.9609 32.7893 52.4696 33 53 33H55C55.5304 33 56.0391 33.2107 56.4142 33.5858C56.7893 33.9609 57 34.4696 57 35V43C57 44.3132 56.7413 45.6136 56.2388 46.8268C55.7362 48.0401 54.9997 49.1425 54.0711 50.0711C53.1425 50.9997 52.0401 51.7362 50.8268 52.2388C49.6136 52.7413 48.3132 53 47 53ZM71 61C69.9391 61 68.9217 60.5786 68.1716 59.8284C67.4214 59.0783 67 58.0609 67 57C67 55.9391 67.4214 54.9217 68.1716 54.1716C68.9217 53.4214 69.9391 53 71 53C72.0609 53 73.0783 53.4214 73.8284 54.1716C74.5786 54.9217 75 55.9391 75 57C75 58.0609 74.5786 59.0783 73.8284 59.8284C73.0783 60.5786 72.0609 61 71 61Z" fill="white"/>
</svg>
