<svg width="110" height="110" viewBox="0 0 110 110" fill="none" xmlns="http://www.w3.org/2000/svg">
<circle cx="55" cy="55" r="55" fill="#20B2FF"/>
<path fill-rule="evenodd" clip-rule="evenodd" d="M65.3288 32.445C65.3663 32.4908 65.4008 32.5383 65.4325 32.5875L65.4338 32.59L65.4375 32.5963L65.4488 32.615L65.4887 32.6813C65.5254 32.7396 65.575 32.8221 65.6375 32.9288C66.4049 34.2494 67.096 35.6128 67.7075 37.0125C68.8225 39.575 70 43.0337 70 46.3287C70 50.0575 67.4813 52.125 65.2663 53.1925C64.1619 53.7173 62.9962 54.1015 61.7962 54.3363C59.9492 56.0516 57.5207 57.003 55 56.9988C53.497 57 52.013 56.6619 50.6588 56.0098C49.3046 55.3577 48.115 54.4083 47.1788 53.2325L47.1213 53.2275C46.8495 53.2028 46.5788 53.1669 46.31 53.12C45.4599 52.9747 44.6322 52.7201 43.8475 52.3625C42.935 51.9375 41.965 51.285 41.2225 50.2838C40.4687 49.2675 40 47.96 40 46.3287C40 43.245 41.5025 39.7413 42.8825 37.1388C43.712 35.578 44.6328 34.0675 45.64 32.615L45.68 32.5587L45.695 32.535L45.805 32.3725C45.8987 32.2388 46.0325 32.06 46.2125 31.85C46.7004 31.2875 47.2544 30.7859 47.8625 30.3562C49.3775 29.2762 51.715 28.25 55.0675 28.25C58.4113 28.25 60.9575 29.2713 62.6725 30.3038C63.5288 30.82 64.1775 31.3375 64.6187 31.7338C64.8589 31.9516 65.0884 32.1811 65.3062 32.4212L65.3188 32.4362L65.325 32.4425L65.3288 32.445ZM47.7962 33.89L47.7362 33.9825L47.7338 33.985L47.7238 33.9975L47.6825 34.0575C47.6442 34.11 47.5892 34.1892 47.5175 34.295C46.635 35.5876 45.8246 36.928 45.09 38.31C43.735 40.8675 42.5 43.9025 42.5 46.3275C42.5 47.4513 42.8125 48.23 43.23 48.7937C43.66 49.3713 44.2538 49.7937 44.9038 50.0962C45.2125 50.24 45.525 50.3538 45.8225 50.4425C45.5844 49.3698 45.4053 48.2848 45.2863 47.1925C45.145 45.85 45.1037 44.3612 45.3562 43.045C45.605 41.755 46.1913 40.3687 47.5338 39.6475C49.32 38.6888 52.3425 37.4062 55.0075 36.5225C56.3363 36.0813 57.6325 35.72 58.6687 35.555C59.1775 35.475 59.7 35.43 60.16 35.4763C60.52 35.5138 61.2663 35.65 61.6788 36.3263C65.0288 41.1625 65.0788 45.5938 64.23 48.83C63.985 49.7663 63.6675 50.595 63.34 51.3C63.6175 51.195 63.8975 51.075 64.18 50.94C65.9925 50.065 67.5 48.6725 67.5 46.3275C67.5 43.55 66.4875 40.47 65.415 38.01C64.8439 36.703 64.1987 35.4297 63.4825 34.1962L63.365 33.9975L63.335 33.9662L63.3212 33.9513C63.2012 33.8274 63.077 33.7078 62.9487 33.5925C62.4641 33.1619 61.9401 32.7778 61.3838 32.445C59.9875 31.6037 57.8813 30.75 55.0688 30.75C52.2638 30.75 50.4287 31.5987 49.3112 32.3937C48.8688 32.7055 48.4655 33.0694 48.11 33.4775C48.0008 33.6064 47.8981 33.7407 47.8025 33.88L47.7962 33.89ZM48.4288 50.6175L48.335 50.2212C48.084 49.1372 47.8962 48.0395 47.7725 46.9338C47.6425 45.6925 47.6262 44.4838 47.8125 43.5175C48.0025 42.5275 48.35 42.0487 48.7162 41.8512C50.35 40.9737 53.2362 39.745 55.795 38.8962C57.0775 38.4713 58.2225 38.1588 59.06 38.0262C59.3762 37.9762 59.6087 37.9575 59.7663 37.9587C62.5138 42.0437 62.485 45.63 61.8112 48.1975C61.5183 49.3015 61.0754 50.3601 60.495 51.3438C60.2817 51.7057 60.0458 52.0539 59.7887 52.3862L59.78 52.3975L59.7537 52.43L59.7487 52.435L59.7475 52.4363C59.6037 52.6043 59.5071 52.8074 59.4675 53.025C58.6081 53.6628 57.6221 54.1092 56.5758 54.3342C55.5296 54.5592 54.4472 54.5576 53.4016 54.3296C52.356 54.1015 51.3713 53.6522 50.5138 53.0119C49.6563 52.3717 48.9445 51.5552 48.4288 50.6175Z" fill="white"/>
<path fill-rule="evenodd" clip-rule="evenodd" d="M47.3925 58.0686C47.1275 57.5411 46.8013 56.8899 46.25 57.0161C39.495 58.5536 32.5 62.9936 32.5 67.7124V74.4999H77.5V67.7124C77.5 63.9949 73.16 60.4524 68.0162 58.3624L67.9987 58.3286L67.9925 58.3161L67.9512 58.3361C66.585 57.7861 65.1625 57.3361 63.75 57.0161C63.1213 56.8724 62.4713 57.7374 62.1875 58.2786H47.5L47.3925 58.0686ZM64.2537 59.7199C64.8004 59.8707 65.3425 60.0403 65.88 60.2286C65.895 60.6561 65.8625 61.1599 65.7925 61.6749C65.7217 62.2082 65.608 62.7349 65.4525 63.2499H63.75C63.5179 63.25 63.2905 63.3147 63.0931 63.4368C62.8957 63.5589 62.7362 63.7335 62.6325 63.9411L61.3825 66.4411C61.2956 66.6146 61.2502 66.8059 61.25 66.9999V69.4999C61.25 69.8314 61.3817 70.1494 61.6161 70.3838C61.8505 70.6182 62.1685 70.7499 62.5 70.7499H65V68.2499H63.75V67.2949L64.5225 65.7499H67.9775L68.75 67.2949V68.2499H67.5V70.7499H70C70.3315 70.7499 70.6495 70.6182 70.8839 70.3838C71.1183 70.1494 71.25 69.8314 71.25 69.4999V66.9999C71.2498 66.8059 71.2044 66.6146 71.1175 66.4411L69.8675 63.9411C69.7638 63.7335 69.6043 63.5589 69.4069 63.4368C69.2095 63.3147 68.9821 63.25 68.75 63.2499H68.0425C68.1953 62.5885 68.2989 61.9166 68.3525 61.2399C69.5713 61.8149 70.7038 62.4749 71.685 63.1899C74.0875 64.9449 75 66.5849 75 67.7124V71.9999H35V67.7124C35 66.5836 35.9125 64.9436 38.315 63.1911C39.5225 62.3099 40.9637 61.5124 42.5087 60.8524C42.5519 61.8485 42.7117 62.8361 42.985 63.7949L42.995 63.8299C42.2477 64.3027 41.6915 65.0243 41.4247 65.8673C41.1578 66.7104 41.1975 67.6206 41.5367 68.4373C41.8758 69.2539 42.4927 69.9245 43.2783 70.3304C44.0638 70.7364 44.9676 70.8517 45.83 70.6559C46.6923 70.4602 47.4577 69.966 47.9911 69.2607C48.5244 68.5553 48.7913 67.6842 48.7446 66.8011C48.698 65.9181 48.3408 65.0799 47.7361 64.4347C47.1314 63.7895 46.3182 63.3787 45.44 63.2749L45.385 63.0949C45.2528 62.6293 45.1547 62.1547 45.0912 61.6749C45.0212 61.1903 44.9919 60.7006 45.0037 60.2111C45.0079 60.1061 45.0142 60.0128 45.0225 59.9311C45.1725 59.8845 45.3225 59.8399 45.4725 59.7974L45.9912 60.7799H63.6963L64.2537 59.7199ZM45 68.2686C45.6725 68.2686 46.25 67.7186 46.25 66.9999C46.25 66.2824 45.6725 65.7311 45 65.7311C44.3275 65.7311 43.75 66.2811 43.75 66.9999C43.75 67.7174 44.3275 68.2686 45 68.2686Z" fill="white"/>
</svg>
