<svg width="42" height="42" viewBox="0 0 42 42" fill="none" xmlns="http://www.w3.org/2000/svg">
<path d="M30.5842 42C30.38 42 30.1776 41.9684 29.9822 41.9088C29.3801 41.7212 28.882 41.2689 28.5405 40.5991L28.3627 40.2485C27.3382 38.2374 26.2786 36.158 25.2858 34.0857C24.7735 33.0179 24.1293 32.0694 23.3125 31.1875C22.8126 30.6475 22.3197 30.0882 21.8444 29.5499C21.2195 28.8416 20.5735 28.1087 19.9117 27.4197C18.8045 26.266 18.3186 24.9791 18.3802 23.3661C18.4436 21.7495 18.4366 20.0927 18.4295 18.4919C18.4278 17.9063 18.4242 17.3225 18.4242 16.7386C18.4242 16.416 18.3838 16.267 18.3609 16.2109C18.2922 16.2039 18.1039 16.2004 17.7008 16.3143C15.3191 16.9823 13.8511 18.2587 13.0818 20.3311C12.9234 20.7589 12.6594 21.2008 12.3161 21.6093C11.5645 22.5087 10.4537 22.7033 9.48736 22.1072C8.44176 21.462 8.10731 20.3451 8.65475 19.3265C9.39055 17.9572 10.2566 16.3722 11.23 14.8784C11.8954 13.8562 12.948 13.1602 14.3563 12.806C15.3878 12.5465 16.4281 12.245 17.4332 11.9539C17.8715 11.8277 18.2975 11.7032 18.7235 11.5822C18.8942 11.5331 19.0615 11.4244 19.285 11.2175C20.2549 10.3181 21.3674 10.1182 22.501 10.6389C23.6681 11.1737 24.2789 12.1468 24.2683 13.453C24.2578 14.7679 24.2595 16.1075 24.2631 17.4031C24.2631 17.9572 24.2648 18.5059 24.2648 19.0547C24.2648 19.5649 24.2648 20.0769 24.2683 20.5871C24.2719 21.8372 24.2754 23.1311 24.2595 24.4075C24.249 25.342 24.4989 26.0363 25.0252 26.529C27.5354 28.8801 29.146 31.7275 30.7936 35.2761C31.0964 35.9284 31.4326 36.5876 31.7583 37.2258C31.9941 37.6887 32.2353 38.1603 32.4659 38.6319C33.0767 39.8838 32.7475 41.1234 31.6474 41.7177C31.3006 41.9053 30.9415 42 30.5807 42H30.5842ZM18.2975 15.6797C18.47 15.6797 18.602 15.713 18.6918 15.7813C18.8696 15.9163 18.9558 16.2284 18.9558 16.7369C18.9558 17.3207 18.9576 17.9028 18.9611 18.4867C18.9682 20.0944 18.9752 21.7565 18.9118 23.3853C18.8555 24.8458 19.2956 26.0118 20.2972 27.055C20.9661 27.751 21.6156 28.4892 22.244 29.201C22.7175 29.7375 23.2087 30.2933 23.7033 30.8298C24.5553 31.7503 25.2294 32.7426 25.7646 33.8577C26.7538 35.9249 27.8118 38.0008 28.8345 40.0083L29.014 40.3589C29.2886 40.8989 29.6794 41.2601 30.1406 41.4039C30.5472 41.5301 30.9838 41.4775 31.4009 41.2531C32.2617 40.7885 32.4888 39.8715 31.9959 38.8581C31.7688 38.3917 31.5277 37.9219 31.2971 37.4678C30.9662 36.819 30.6264 36.1563 30.3184 35.4936C28.6972 31.9993 27.1164 29.2028 24.6679 26.9095C24.0289 26.3098 23.7244 25.4893 23.7367 24.3987C23.7508 23.1259 23.7473 21.8337 23.7455 20.5853C23.7455 20.0734 23.742 19.5632 23.742 19.0512C23.742 18.5024 23.742 17.9537 23.7403 17.4049C23.7385 16.1039 23.7367 14.7627 23.7455 13.4442C23.7543 12.3449 23.2632 11.5612 22.2845 11.1123C21.348 10.6828 20.4609 10.8458 19.6494 11.598C19.3607 11.8645 19.1283 12.01 18.8731 12.0837C18.4471 12.2046 18.0211 12.3274 17.5969 12.4501C16.576 12.7464 15.5321 13.0497 14.49 13.311C13.2156 13.6318 12.2686 14.2525 11.6789 15.1589C10.716 16.6352 9.85702 18.2096 9.12651 19.5684C8.70756 20.3487 8.954 21.1482 9.77252 21.6531C10.5242 22.1177 11.3251 21.9722 11.9165 21.2656C12.2211 20.9027 12.4534 20.5135 12.5925 20.1418C13.4251 17.8976 15.0058 16.5177 17.5635 15.8006C17.8627 15.7165 18.1074 15.6744 18.301 15.6744L18.2975 15.6797ZM12.8636 40.8183H12.8319C12.0133 40.7639 11.3638 40.3484 11.0012 39.6488C10.5699 38.8125 10.6843 37.9306 11.3233 37.1627C12.1137 36.2124 12.9076 35.2656 13.6997 34.3171L14.8104 32.9881C15.1273 32.6094 15.4441 32.2307 15.7627 31.852L15.7768 31.8362C16.6587 30.7842 17.5723 29.6954 18.4559 28.6154C18.6566 28.3717 18.977 28.0438 19.454 28.0281C19.9328 28.0105 20.2831 28.3173 20.5049 28.5505L20.5454 28.5926C22.2951 30.4423 22.3039 30.8807 20.6475 32.8566L20.6369 32.8689C18.8449 35.0044 16.8154 37.4257 14.8527 39.7909C14.4936 40.2239 13.8986 40.8025 12.8952 40.8218H12.8618L12.8636 40.8183ZM19.4945 28.5505C19.4945 28.5505 19.4804 28.5505 19.4751 28.5505C19.2164 28.5593 19.0227 28.7557 18.8661 28.945C17.9807 30.0268 17.0671 31.1173 16.1834 32.1711L16.1693 32.1869C15.8525 32.5656 15.5339 32.9443 15.217 33.323L14.1063 34.652C13.3124 35.5987 12.5203 36.5473 11.7299 37.4958C11.2283 38.1007 11.1385 38.7599 11.4712 39.4069C11.744 39.9364 12.2387 40.2502 12.8653 40.2905H12.8759H12.8864C13.6592 40.2765 14.1081 39.8592 14.446 39.4507C16.4087 37.0838 18.4401 34.6642 20.232 32.527L20.2426 32.5147C21.7318 30.7404 21.7283 30.6071 20.1616 28.9485L20.1211 28.9065C19.9522 28.7276 19.748 28.5488 19.4945 28.5488V28.5505ZM31.4238 21.5479C31.0894 21.5479 30.7532 21.4673 30.4486 21.3147C29.2728 20.7239 28.1128 20.0769 26.9879 19.451C26.4387 19.1441 25.8931 18.8408 25.3456 18.5428C24.851 18.2728 24.6028 17.8169 24.6081 17.1857L24.6116 16.8964C24.6169 16.3021 24.6239 15.6989 24.6045 15.1151C24.5975 14.8766 24.5781 14.2472 25.1062 13.9299C25.6343 13.6125 26.187 13.9246 26.3683 14.0263C27.6428 14.7469 28.9436 15.4728 30.2022 16.1741L30.2673 16.2109C30.9802 16.6089 31.6931 17.0069 32.4061 17.4049C33.1436 17.8187 33.5784 18.4849 33.5978 19.2371V19.2546C33.5978 20.0839 33.1982 20.8238 32.5257 21.2358C32.1931 21.4392 31.8128 21.5479 31.4238 21.5479ZM25.5991 18.0799C26.1483 18.3797 26.694 18.683 27.2414 18.9881C28.3645 19.614 29.521 20.2592 30.6863 20.8448C31.1844 21.0956 31.7864 21.0745 32.2494 20.7887C32.7634 20.4731 33.0714 19.9016 33.0714 19.2581C33.0556 18.69 32.7194 18.1851 32.1473 17.8642C31.4344 17.4645 30.7215 17.0683 30.0086 16.6703L29.9434 16.6352C28.6848 15.9321 27.3822 15.2063 26.1078 14.4857C25.8913 14.3629 25.6114 14.2402 25.3773 14.3805C25.1449 14.5207 25.1221 14.8223 25.1309 15.0993C25.1485 15.6937 25.1432 16.3021 25.1379 16.8912L25.1344 17.191C25.1326 17.4855 25.1819 17.8537 25.5973 18.0817L25.5991 18.0799ZM21.3111 10.0516H21.2565C18.4665 10.0218 16.2855 7.79161 16.2908 4.97583C16.2943 3.61528 16.8118 2.35467 17.7518 1.42893C18.6883 0.5067 19.9504 0 21.3093 0H21.334C24.1574 0.00701315 26.3701 2.20213 26.3719 4.99862C26.3719 6.35917 25.8385 7.63557 24.8668 8.59286C23.9128 9.53262 22.6506 10.0516 21.3128 10.0516H21.3111ZM21.3093 0.525986C20.0895 0.525986 18.9594 0.978334 18.1232 1.80238C17.2853 2.62993 16.8224 3.75554 16.8189 4.97583C16.8136 7.50056 18.7657 9.49931 21.2618 9.52561H21.3111C22.5081 9.52561 23.6399 9.06099 24.4936 8.21941C25.3632 7.36205 25.8438 6.21716 25.842 4.99862C25.842 2.49668 23.8582 0.531246 21.3304 0.525986H21.3093Z" fill="#737F87"/>
</svg>
