<svg width="24" height="24" viewBox="0 0 24 24" fill="none" xmlns="http://www.w3.org/2000/svg">
<path d="M9.46506 4.63058C9.2189 4.38414 8.97273 4.1232 8.71209 3.87676C7.53917 2.76054 5.84497 2.70255 4.58518 3.74629C2.39864 5.57284 1.58774 7.93576 2.19591 10.7626C3.03578 14.6186 5.26575 17.6774 9.01617 20.1128C10.7249 21.2145 12.7231 21.9393 14.2001 21.9973C17.0528 22.0553 18.9352 21.1855 20.4846 19.127C20.7742 18.7356 20.9335 18.2572 20.9914 17.6339C21.0783 16.4597 20.4991 15.6334 19.442 14.6041C17.7913 12.995 16.1984 12.9805 14.5766 14.5461C13.7947 15.2999 13.201 15.2999 12.4191 14.5171C11.4634 13.5604 10.4932 12.5891 9.55195 11.6468C8.66864 10.7626 8.66864 10.2262 9.55195 9.32742C10.971 7.87778 10.971 6.1527 9.56643 4.71755L9.46506 4.63058ZM8.78449 8.45763C8.35008 8.89252 7.90118 9.34191 7.79982 9.92177C7.62606 10.835 7.82878 11.5889 8.45144 12.1977C8.84241 12.5891 9.2189 12.966 9.60987 13.3574C10.3339 14.0822 11.0869 14.8361 11.8254 15.5609C12.8535 16.5611 14.2001 16.5611 15.2572 15.5319C16.6039 14.2417 17.4438 14.2417 18.747 15.5319L18.8773 15.6624C18.9932 15.7783 19.0945 15.8798 19.2104 15.9958C20.0357 16.8656 20.0502 17.8368 19.2683 18.7791C18.1388 20.1417 16.7197 20.8086 14.9531 20.8086C14.5187 20.8086 14.0698 20.7651 13.592 20.6926C8.53832 19.8518 3.60051 14.4447 3.20954 9.37091C3.20954 9.28393 3.20954 9.22594 3.20954 9.09547C3.20954 9.02299 3.20954 8.95051 3.20954 8.83454C3.15162 7.23993 3.91908 5.77579 5.5264 4.50011C5.62776 4.41313 5.75809 4.34065 5.90289 4.28266C6.90204 3.87676 8.08943 4.47112 9.10306 5.87727C9.63883 6.71806 9.52299 7.71831 8.78449 8.45763Z" fill="#20B2FF"/>
</svg>
