<svg width="33" height="33" viewBox="0 0 33 33" fill="none" xmlns="http://www.w3.org/2000/svg">
<path d="M15.5093 28.9015C8.05443 28.9015 1.98499 22.8321 1.98499 15.3772C1.98499 7.92235 8.05443 1.85291 15.5093 1.85291C22.9642 1.85291 29.0336 7.92235 29.0336 15.3772C29.0336 22.8321 22.9642 28.9015 15.5093 28.9015ZM15.5093 3.83207C9.13638 3.83207 3.96415 9.01749 3.96415 15.3772C3.96415 21.7369 9.13638 26.9224 15.5093 26.9224C21.8822 26.9224 27.0544 21.7369 27.0544 15.3772C27.0544 9.01749 21.8822 3.83207 15.5093 3.83207Z" fill="white" stroke="white" stroke-width="0.8"/>
<path d="M29.3648 30.2223C29.1141 30.2223 28.8634 30.1299 28.6655 29.932L26.0266 27.2931C25.644 26.9105 25.644 26.2772 26.0266 25.8945C26.4092 25.5119 27.0426 25.5119 27.4252 25.8945L30.0641 28.5334C30.4467 28.9161 30.4467 29.5494 30.0641 29.932C29.8662 30.1299 29.6155 30.2223 29.3648 30.2223Z" fill="white" stroke="white" stroke-width="0.8"/>
</svg>
