<svg width="0" height="0" class="hidden">
  <symbol fill="currentColor" xmlns="http://www.w3.org/2000/svg" viewBox="0 0 33 33" id="search">
    <path d="M15.5093 28.9015C8.05443 28.9015 1.98499 22.8321 1.98499 15.3772C1.98499 7.92235 8.05443 1.85291 15.5093 1.85291C22.9642 1.85291 29.0336 7.92235 29.0336 15.3772C29.0336 22.8321 22.9642 28.9015 15.5093 28.9015ZM15.5093 3.83207C9.13638 3.83207 3.96415 9.01749 3.96415 15.3772C3.96415 21.7369 9.13638 26.9224 15.5093 26.9224C21.8822 26.9224 27.0544 21.7369 27.0544 15.3772C27.0544 9.01749 21.8822 3.83207 15.5093 3.83207Z" fill="currentColor" stroke="currentColor" stroke-width="0.8"></path>
    <path d="M29.3648 30.2223C29.1141 30.2223 28.8634 30.1299 28.6655 29.932L26.0266 27.2931C25.644 26.9105 25.644 26.2772 26.0266 25.8945C26.4092 25.5119 27.0426 25.5119 27.4252 25.8945L30.0641 28.5334C30.4467 28.9161 30.4467 29.5494 30.0641 29.932C29.8662 30.1299 29.6155 30.2223 29.3648 30.2223Z" fill="currentColor" stroke="currentColor" stroke-width="0.8"></path>
  </symbol>
  <symbol fill="currentColor" xmlns="http://www.w3.org/2000/svg" viewBox="0 0 31 30" id="tg">
    <path d="M0 12.7602L9.2152 17.4363L11.5003 27.4035L17.4827 22.681L25.2951 28L31 3L0 12.7602ZM14.013 20.3291L16.8654 22.2607L12.3701 25.8088L14.013 20.326V20.3291ZM13.4892 19.5781L11.7622 25.339L9.93534 17.3745L22.2275 10.3186L13.4861 19.5812L13.4892 19.5781ZM24.8306 26.8194L17.9784 22.1556L17.651 21.9331L17.4515 21.7971L14.3559 19.7017L26.0619 7.29596L9.5176 16.7934L1.87671 12.9147L30.0242 4.0539L24.8274 26.8225L24.8306 26.8194Z" fill="currentColor"></path>
  </symbol>
  <symbol fill="currentColor" xmlns="http://www.w3.org/2000/svg" viewBox="0 0 30 30" id="wa">
    <path d="M7.50798 27.3111C7.72916 27.2413 7.9387 27.2181 8.1366 27.2181C8.42762 27.2181 8.71865 27.2879 9.00968 27.4391C11.6988 28.8 14.5741 29.277 17.5659 28.8466C21.0233 28.358 24.178 26.6248 26.4597 23.9844C28.7413 21.3439 29.9986 17.9706 29.9986 14.4693V14.4577C30.0102 13.7597 29.952 13.0153 29.789 12.0498C29.1604 8.21123 27.0184 4.84956 23.7706 2.59293C20.4994 0.347935 16.5764 -0.489575 12.7348 0.278143C8.21808 1.16218 4.48129 4.02368 2.47903 8.14144C0.465118 12.2592 0.511682 16.9702 2.59544 21.088C2.81662 21.5183 2.85154 21.9138 2.72349 22.3675C2.4441 23.3446 2.16472 24.3333 1.89697 25.2988C1.62923 26.241 1.36148 27.2181 1.0821 28.1719C0.965684 28.579 1.01225 28.7186 1.1403 28.8582C1.27999 28.9978 1.41969 29.0443 1.81548 28.928C2.65364 28.6837 3.50344 28.4511 4.32996 28.2184C5.37766 27.916 6.46028 27.6252 7.50798 27.3111ZM2.57215 27.4275C2.32769 27.1832 2.43246 26.8226 2.49067 26.6248C2.71185 25.8688 2.92139 25.101 3.13093 24.3566C3.34047 23.6121 3.55001 22.856 3.77119 22.1C3.8876 21.7161 3.85267 21.4253 3.66642 21.088C1.55938 17.261 1.37312 12.8175 3.15421 8.89752C4.94694 4.96588 8.43926 2.17417 12.7348 1.23197C13.6661 1.03423 14.5741 0.92954 15.3774 0.941172H15.389C22.1525 0.941172 27.973 5.91971 28.9159 12.5267C29.9753 19.9131 24.8416 26.7993 17.4727 27.8927C16.7859 27.9974 16.1107 28.044 15.4356 28.044C13.1772 28.044 11.0119 27.474 8.96311 26.3457C8.57896 26.1363 8.26465 26.1014 7.84557 26.2293C7.01905 26.4736 6.18089 26.7063 5.37766 26.9273C4.72576 27.1018 4.03893 27.2879 3.37539 27.4856C3.16585 27.567 2.81662 27.6717 2.57215 27.4275Z" fill="currentColor"></path>
    <path d="M13.8935 8.2873C13.6991 8.09274 13.5048 7.88674 13.299 7.69218C12.373 6.81095 11.0355 6.76517 10.0409 7.58918C8.31472 9.03119 7.67453 10.8967 8.15467 13.1283C8.81772 16.1726 10.5782 18.5874 13.5391 20.5101C14.888 21.3799 16.4656 21.9521 17.6317 21.9979C19.8838 22.0436 21.3699 21.357 22.5931 19.7318C22.8218 19.4228 22.9475 19.0452 22.9932 18.5531C23.0618 17.626 22.6046 16.9737 21.77 16.1611C20.4668 14.8908 19.2093 14.8794 17.9289 16.1154C17.3116 16.7105 16.8429 16.7105 16.2256 16.0925C15.4711 15.3371 14.7051 14.5704 13.9621 13.8265C13.2647 13.1283 13.2647 12.7049 13.9621 11.9953C15.0824 10.8509 15.0824 9.48897 13.9735 8.35596L13.8935 8.2873ZM13.3562 11.3087C13.0132 11.652 12.6588 12.0068 12.5788 12.4646C12.4416 13.1856 12.6017 13.7807 13.0932 14.2613C13.4019 14.5704 13.6991 14.8679 14.0078 15.1769C14.5794 15.7491 15.1738 16.3443 15.7569 16.9165C16.5685 17.7062 17.6317 17.7062 18.4662 16.8936C19.5294 15.875 20.1924 15.875 21.2213 16.8936L21.3242 16.9966C21.4156 17.0882 21.4957 17.1683 21.5871 17.2598C22.2387 17.9465 22.2502 18.7133 21.6329 19.4572C20.7412 20.533 19.6208 21.0594 18.2262 21.0594C17.8832 21.0594 17.5288 21.0251 17.1516 20.9679C13.1618 20.3041 9.26356 16.0353 8.9549 12.0297C8.9549 11.961 8.9549 11.9152 8.9549 11.8122C8.9549 11.755 8.9549 11.6978 8.9549 11.6062C8.90917 10.3473 9.51506 9.19142 10.784 8.1843C10.864 8.11563 10.9669 8.05841 11.0812 8.01263C11.87 7.69218 12.8074 8.16141 13.6077 9.27153C14.0307 9.93531 13.9392 10.725 13.3562 11.3087Z" fill="currentColor"></path>
  </symbol>
  <symbol version="1.1" xmlns="http://www.w3.org/2000/svg" xmlns:xlink="http://www.w3.org/1999/xlink" xmlnsSketch="http://www.bohemiancoding.com/sketch/ns" viewBox="-4 0 32 32" id="location">
    <g id="Page-1" stroke="none" stroke-width="1" fill="none" fill-rule="evenodd" sketchType="MSPage">
      <g id="Icon-Set" sketchType="MSLayerGroup" transform="translate(-104.000000, -411.000000)" fill="currentColor">
        <path d="M116,426 C114.343,426 113,424.657 113,423 C113,421.343 114.343,420 116,420 C117.657,420 119,421.343 119,423 C119,424.657 117.657,426 116,426 L116,426 Z M116,418 C113.239,418 111,420.238 111,423 C111,425.762 113.239,428 116,428 C118.761,428 121,425.762 121,423 C121,420.238 118.761,418 116,418 L116,418 Z M116,440 C114.337,440.009 106,427.181 106,423 C106,417.478 110.477,413 116,413 C121.523,413 126,417.478 126,423 C126,427.125 117.637,440.009 116,440 L116,440 Z M116,411 C109.373,411 104,416.373 104,423 C104,428.018 114.005,443.011 116,443 C117.964,443.011 128,427.95 128,423 C128,416.373 122.627,411 116,411 L116,411 Z" id="location" sketchType="MSShapeGroup"></path>
      </g>
    </g>
  </symbol>
  <symbol fill="none" xmlns="http://www.w3.org/2000/svg" viewBox="0 0 8 13" id="arrow">
    <path d="M1.74999 1.25001L6.29287 5.79289C6.6834 6.18342 6.6834 6.81658 6.29287 7.20711L1.74999 11.75" stroke="currentColor" stroke-width="2" stroke-linecap="round"></path>
  </symbol>
  <symbol fill="currentColor" xmlns="http://www.w3.org/2000/svg" viewBox="0 0 22 16" id="arrow-slider">
    <path d="M1 8L20.5 8M20.5 8L13.5 1M20.5 8L13.5 15" stroke="currentColor" stroke-width="2" stroke-linecap="round" stroke-linejoin="round"></path>
  </symbol>
  <symbol fill="none" xmlns="http://www.w3.org/2000/svg" viewBox="0 0 26 13" id="burger">
    <rect width="25" height="2" transform="translate(0.978516 0.0678711)" fill="#20B2FF"></rect>
    <rect width="25" height="2" transform="translate(0.978516 5.06787)" fill="#20B2FF"></rect>
    <rect width="25" height="2" transform="translate(0.978516 10.0679)" fill="#20B2FF"></rect>
  </symbol>
  <symbol fill="none" xmlns="http://www.w3.org/2000/svg" viewBox="0 0 42 42" id="human">
    <path d="M30.5842 42C30.38 42 30.1776 41.9684 29.9822 41.9088C29.3801 41.7212 28.882 41.2689 28.5405 40.5991L28.3627 40.2485C27.3382 38.2374 26.2786 36.158 25.2858 34.0857C24.7735 33.0179 24.1293 32.0694 23.3125 31.1875C22.8126 30.6475 22.3197 30.0882 21.8444 29.5499C21.2195 28.8416 20.5735 28.1087 19.9117 27.4197C18.8045 26.266 18.3186 24.9791 18.3802 23.3661C18.4436 21.7495 18.4366 20.0927 18.4295 18.4919C18.4278 17.9063 18.4242 17.3225 18.4242 16.7386C18.4242 16.416 18.3838 16.267 18.3609 16.2109C18.2922 16.2039 18.1039 16.2004 17.7008 16.3143C15.3191 16.9823 13.8511 18.2587 13.0818 20.3311C12.9234 20.7589 12.6594 21.2008 12.3161 21.6093C11.5645 22.5087 10.4537 22.7033 9.48736 22.1072C8.44176 21.462 8.10731 20.3451 8.65475 19.3265C9.39055 17.9572 10.2566 16.3722 11.23 14.8784C11.8954 13.8562 12.948 13.1602 14.3563 12.806C15.3878 12.5465 16.4281 12.245 17.4332 11.9539C17.8715 11.8277 18.2975 11.7032 18.7235 11.5822C18.8942 11.5331 19.0615 11.4244 19.285 11.2175C20.2549 10.3181 21.3674 10.1182 22.501 10.6389C23.6681 11.1737 24.2789 12.1468 24.2683 13.453C24.2578 14.7679 24.2595 16.1075 24.2631 17.4031C24.2631 17.9572 24.2648 18.5059 24.2648 19.0547C24.2648 19.5649 24.2648 20.0769 24.2683 20.5871C24.2719 21.8372 24.2754 23.1311 24.2595 24.4075C24.249 25.342 24.4989 26.0363 25.0252 26.529C27.5354 28.8801 29.146 31.7275 30.7936 35.2761C31.0964 35.9284 31.4326 36.5876 31.7583 37.2258C31.9941 37.6887 32.2353 38.1603 32.4659 38.6319C33.0767 39.8838 32.7475 41.1234 31.6474 41.7177C31.3006 41.9053 30.9415 42 30.5807 42H30.5842ZM18.2975 15.6797C18.47 15.6797 18.602 15.713 18.6918 15.7813C18.8696 15.9163 18.9558 16.2284 18.9558 16.7369C18.9558 17.3207 18.9576 17.9028 18.9611 18.4867C18.9682 20.0944 18.9752 21.7565 18.9118 23.3853C18.8555 24.8458 19.2956 26.0118 20.2972 27.055C20.9661 27.751 21.6156 28.4892 22.244 29.201C22.7175 29.7375 23.2087 30.2933 23.7033 30.8298C24.5553 31.7503 25.2294 32.7426 25.7646 33.8577C26.7538 35.9249 27.8118 38.0008 28.8345 40.0083L29.014 40.3589C29.2886 40.8989 29.6794 41.2601 30.1406 41.4039C30.5472 41.5301 30.9838 41.4775 31.4009 41.2531C32.2617 40.7885 32.4888 39.8715 31.9959 38.8581C31.7688 38.3917 31.5277 37.9219 31.2971 37.4678C30.9662 36.819 30.6264 36.1563 30.3184 35.4936C28.6972 31.9993 27.1164 29.2028 24.6679 26.9095C24.0289 26.3098 23.7244 25.4893 23.7367 24.3987C23.7508 23.1259 23.7473 21.8337 23.7455 20.5853C23.7455 20.0734 23.742 19.5632 23.742 19.0512C23.742 18.5024 23.742 17.9537 23.7403 17.4049C23.7385 16.1039 23.7367 14.7627 23.7455 13.4442C23.7543 12.3449 23.2632 11.5612 22.2845 11.1123C21.348 10.6828 20.4609 10.8458 19.6494 11.598C19.3607 11.8645 19.1283 12.01 18.8731 12.0837C18.4471 12.2046 18.0211 12.3274 17.5969 12.4501C16.576 12.7464 15.5321 13.0497 14.49 13.311C13.2156 13.6318 12.2686 14.2525 11.6789 15.1589C10.716 16.6352 9.85702 18.2096 9.12651 19.5684C8.70756 20.3487 8.954 21.1482 9.77252 21.6531C10.5242 22.1177 11.3251 21.9722 11.9165 21.2656C12.2211 20.9027 12.4534 20.5135 12.5925 20.1418C13.4251 17.8976 15.0058 16.5177 17.5635 15.8006C17.8627 15.7165 18.1074 15.6744 18.301 15.6744L18.2975 15.6797ZM12.8636 40.8183H12.8319C12.0133 40.7639 11.3638 40.3484 11.0012 39.6488C10.5699 38.8125 10.6843 37.9306 11.3233 37.1627C12.1137 36.2124 12.9076 35.2656 13.6997 34.3171L14.8104 32.9881C15.1273 32.6094 15.4441 32.2307 15.7627 31.852L15.7768 31.8362C16.6587 30.7842 17.5723 29.6954 18.4559 28.6154C18.6566 28.3717 18.977 28.0438 19.454 28.0281C19.9328 28.0105 20.2831 28.3173 20.5049 28.5505L20.5454 28.5926C22.2951 30.4423 22.3039 30.8807 20.6475 32.8566L20.6369 32.8689C18.8449 35.0044 16.8154 37.4257 14.8527 39.7909C14.4936 40.2239 13.8986 40.8025 12.8952 40.8218H12.8618L12.8636 40.8183ZM19.4945 28.5505C19.4945 28.5505 19.4804 28.5505 19.4751 28.5505C19.2164 28.5593 19.0227 28.7557 18.8661 28.945C17.9807 30.0268 17.0671 31.1173 16.1834 32.1711L16.1693 32.1869C15.8525 32.5656 15.5339 32.9443 15.217 33.323L14.1063 34.652C13.3124 35.5987 12.5203 36.5473 11.7299 37.4958C11.2283 38.1007 11.1385 38.7599 11.4712 39.4069C11.744 39.9364 12.2387 40.2502 12.8653 40.2905H12.8759H12.8864C13.6592 40.2765 14.1081 39.8592 14.446 39.4507C16.4087 37.0838 18.4401 34.6642 20.232 32.527L20.2426 32.5147C21.7318 30.7404 21.7283 30.6071 20.1616 28.9485L20.1211 28.9065C19.9522 28.7276 19.748 28.5488 19.4945 28.5488V28.5505ZM31.4238 21.5479C31.0894 21.5479 30.7532 21.4673 30.4486 21.3147C29.2728 20.7239 28.1128 20.0769 26.9879 19.451C26.4387 19.1441 25.8931 18.8408 25.3456 18.5428C24.851 18.2728 24.6028 17.8169 24.6081 17.1857L24.6116 16.8964C24.6169 16.3021 24.6239 15.6989 24.6045 15.1151C24.5975 14.8766 24.5781 14.2472 25.1062 13.9299C25.6343 13.6125 26.187 13.9246 26.3683 14.0263C27.6428 14.7469 28.9436 15.4728 30.2022 16.1741L30.2673 16.2109C30.9802 16.6089 31.6931 17.0069 32.4061 17.4049C33.1436 17.8187 33.5784 18.4849 33.5978 19.2371V19.2546C33.5978 20.0839 33.1982 20.8238 32.5257 21.2358C32.1931 21.4392 31.8128 21.5479 31.4238 21.5479ZM25.5991 18.0799C26.1483 18.3797 26.694 18.683 27.2414 18.9881C28.3645 19.614 29.521 20.2592 30.6863 20.8448C31.1844 21.0956 31.7864 21.0745 32.2494 20.7887C32.7634 20.4731 33.0714 19.9016 33.0714 19.2581C33.0556 18.69 32.7194 18.1851 32.1473 17.8642C31.4344 17.4645 30.7215 17.0683 30.0086 16.6703L29.9434 16.6352C28.6848 15.9321 27.3822 15.2063 26.1078 14.4857C25.8913 14.3629 25.6114 14.2402 25.3773 14.3805C25.1449 14.5207 25.1221 14.8223 25.1309 15.0993C25.1485 15.6937 25.1432 16.3021 25.1379 16.8912L25.1344 17.191C25.1326 17.4855 25.1819 17.8537 25.5973 18.0817L25.5991 18.0799ZM21.3111 10.0516H21.2565C18.4665 10.0218 16.2855 7.79161 16.2908 4.97583C16.2943 3.61528 16.8118 2.35467 17.7518 1.42893C18.6883 0.5067 19.9504 0 21.3093 0H21.334C24.1574 0.00701315 26.3701 2.20213 26.3719 4.99862C26.3719 6.35917 25.8385 7.63557 24.8668 8.59286C23.9128 9.53262 22.6506 10.0516 21.3128 10.0516H21.3111ZM21.3093 0.525986C20.0895 0.525986 18.9594 0.978334 18.1232 1.80238C17.2853 2.62993 16.8224 3.75554 16.8189 4.97583C16.8136 7.50056 18.7657 9.49931 21.2618 9.52561H21.3111C22.5081 9.52561 23.6399 9.06099 24.4936 8.21941C25.3632 7.36205 25.8438 6.21716 25.842 4.99862C25.842 2.49668 23.8582 0.531246 21.3304 0.525986H21.3093Z" fill="#737F87"></path>
  </symbol>
    <symbol fill="none" xmlns="http://www.w3.org/2000/svg" viewBox="0 0 24 24" id="phone">
        <path
            d="M9.46506 4.63058C9.2189 4.38414 8.97273 4.1232 8.71209 3.87676C7.53917 2.76054 5.84497 2.70255 4.58518 3.74629C2.39864 5.57284 1.58774 7.93576 2.19591 10.7626C3.03578 14.6186 5.26575 17.6774 9.01617 20.1128C10.7249 21.2145 12.7231 21.9393 14.2001 21.9973C17.0528 22.0553 18.9352 21.1855 20.4846 19.127C20.7742 18.7356 20.9335 18.2572 20.9914 17.6339C21.0783 16.4597 20.4991 15.6334 19.442 14.6041C17.7913 12.995 16.1984 12.9805 14.5766 14.5461C13.7947 15.2999 13.201 15.2999 12.4191 14.5171C11.4634 13.5604 10.4932 12.5891 9.55195 11.6468C8.66864 10.7626 8.66864 10.2262 9.55195 9.32742C10.971 7.87778 10.971 6.1527 9.56643 4.71755L9.46506 4.63058ZM8.78449 8.45763C8.35008 8.89252 7.90118 9.34191 7.79982 9.92177C7.62606 10.835 7.82878 11.5889 8.45144 12.1977C8.84241 12.5891 9.2189 12.966 9.60987 13.3574C10.3339 14.0822 11.0869 14.8361 11.8254 15.5609C12.8535 16.5611 14.2001 16.5611 15.2572 15.5319C16.6039 14.2417 17.4438 14.2417 18.747 15.5319L18.8773 15.6624C18.9932 15.7783 19.0945 15.8798 19.2104 15.9958C20.0357 16.8656 20.0502 17.8368 19.2683 18.7791C18.1388 20.1417 16.7197 20.8086 14.9531 20.8086C14.5187 20.8086 14.0698 20.7651 13.592 20.6926C8.53832 19.8518 3.60051 14.4447 3.20954 9.37091C3.20954 9.28393 3.20954 9.22594 3.20954 9.09547C3.20954 9.02299 3.20954 8.95051 3.20954 8.83454C3.15162 7.23993 3.91908 5.77579 5.5264 4.50011C5.62776 4.41313 5.75809 4.34065 5.90289 4.28266C6.90204 3.87676 8.08943 4.47112 9.10306 5.87727C9.63883 6.71806 9.52299 7.71831 8.78449 8.45763Z"
            fill="#20B2FF"></path>
    </symbol>
    <symbol fill="none" xmlns="http://www.w3.org/2000/svg" viewBox="0 0 30 30" id="close">
        <path
            d="M1.93325 29.7187L0.28125 28.0667L13.3479 15L0.28125 1.93337L1.93325 0.281372L14.9999 13.348L28.0666 0.281372L29.7186 1.93337L16.6519 15L29.7186 28.0667L28.0666 29.7187L14.9999 16.652L1.93325 29.7187Z"
            fill="#BCE2FF"></path>
    </symbol>
</svg>