<svg width="30" height="30" viewBox="0 0 30 30" fill="none" xmlns="http://www.w3.org/2000/svg">
<path d="M7.50798 27.3111C7.72916 27.2413 7.9387 27.2181 8.1366 27.2181C8.42762 27.2181 8.71865 27.2879 9.00968 27.4391C11.6988 28.8 14.5741 29.277 17.5659 28.8466C21.0233 28.358 24.178 26.6248 26.4597 23.9844C28.7413 21.3439 29.9986 17.9706 29.9986 14.4693V14.4577C30.0102 13.7597 29.952 13.0153 29.789 12.0498C29.1604 8.21123 27.0184 4.84956 23.7706 2.59293C20.4994 0.347935 16.5764 -0.489575 12.7348 0.278143C8.21808 1.16218 4.48129 4.02368 2.47903 8.14144C0.465118 12.2592 0.511682 16.9702 2.59544 21.088C2.81662 21.5183 2.85154 21.9138 2.72349 22.3675C2.4441 23.3446 2.16472 24.3333 1.89697 25.2988C1.62923 26.241 1.36148 27.2181 1.0821 28.1719C0.965684 28.579 1.01225 28.7186 1.1403 28.8582C1.27999 28.9978 1.41969 29.0443 1.81548 28.928C2.65364 28.6837 3.50344 28.4511 4.32996 28.2184C5.37766 27.916 6.46028 27.6252 7.50798 27.3111ZM2.57215 27.4275C2.32769 27.1832 2.43246 26.8226 2.49067 26.6248C2.71185 25.8688 2.92139 25.101 3.13093 24.3566C3.34047 23.6121 3.55001 22.856 3.77119 22.1C3.8876 21.7161 3.85267 21.4253 3.66642 21.088C1.55938 17.261 1.37312 12.8175 3.15421 8.89752C4.94694 4.96588 8.43926 2.17417 12.7348 1.23197C13.6661 1.03423 14.5741 0.92954 15.3774 0.941172H15.389C22.1525 0.941172 27.973 5.91971 28.9159 12.5267C29.9753 19.9131 24.8416 26.7993 17.4727 27.8927C16.7859 27.9974 16.1107 28.044 15.4356 28.044C13.1772 28.044 11.0119 27.474 8.96311 26.3457C8.57896 26.1363 8.26465 26.1014 7.84557 26.2293C7.01905 26.4736 6.18089 26.7063 5.37766 26.9273C4.72576 27.1018 4.03893 27.2879 3.37539 27.4856C3.16585 27.567 2.81662 27.6717 2.57215 27.4275Z" fill="#20B2FF"/>
<path d="M13.8935 8.2873C13.6991 8.09274 13.5048 7.88674 13.299 7.69218C12.373 6.81095 11.0355 6.76517 10.0409 7.58918C8.31472 9.03119 7.67453 10.8967 8.15467 13.1283C8.81772 16.1726 10.5782 18.5874 13.5391 20.5101C14.888 21.3799 16.4656 21.9521 17.6317 21.9979C19.8838 22.0436 21.3699 21.357 22.5931 19.7318C22.8218 19.4228 22.9475 19.0452 22.9932 18.5531C23.0618 17.626 22.6046 16.9737 21.77 16.1611C20.4668 14.8908 19.2093 14.8794 17.9289 16.1154C17.3116 16.7105 16.8429 16.7105 16.2256 16.0925C15.4711 15.3371 14.7051 14.5704 13.9621 13.8265C13.2647 13.1283 13.2647 12.7049 13.9621 11.9953C15.0824 10.8509 15.0824 9.48897 13.9735 8.35596L13.8935 8.2873ZM13.3562 11.3087C13.0132 11.652 12.6588 12.0068 12.5788 12.4646C12.4416 13.1856 12.6017 13.7807 13.0932 14.2613C13.4019 14.5704 13.6991 14.8679 14.0078 15.1769C14.5794 15.7491 15.1738 16.3443 15.7569 16.9165C16.5685 17.7062 17.6317 17.7062 18.4662 16.8936C19.5294 15.875 20.1924 15.875 21.2213 16.8936L21.3242 16.9966C21.4156 17.0882 21.4957 17.1683 21.5871 17.2598C22.2387 17.9465 22.2502 18.7133 21.6329 19.4572C20.7412 20.533 19.6208 21.0594 18.2262 21.0594C17.8832 21.0594 17.5288 21.0251 17.1516 20.9679C13.1618 20.3041 9.26356 16.0353 8.9549 12.0297C8.9549 11.961 8.9549 11.9152 8.9549 11.8122C8.9549 11.755 8.9549 11.6978 8.9549 11.6062C8.90917 10.3473 9.51506 9.19142 10.784 8.1843C10.864 8.11563 10.9669 8.05841 11.0812 8.01263C11.87 7.69218 12.8074 8.16141 13.6077 9.27153C14.0307 9.93531 13.9392 10.725 13.3562 11.3087Z" fill="#20B2FF"/>
</svg>
