<svg width="958" height="806" viewBox="0 0 958 806" fill="none" xmlns="http://www.w3.org/2000/svg">
<path d="M14.8567 0C27.6815 21.5131 48.4568 35.4493 66.6805 51.3026C45.9637 44.3254 26.4007 34.7466 6.36842 26.3715C4.67413 27.5139 1.69429 29.8184 0 30.9601C21.0274 52.0692 34.1454 79.9395 57.9791 98.1214C55.519 102.293 53.2727 106.272 50.619 110.229C80.0419 131.148 102.117 159.879 123.804 188.182C148.979 220.342 184.636 243.417 206.38 278.678C226.24 314.866 256.065 343.988 275.946 379.769C286.112 397.02 295.74 410.115 310.861 417.535C322.398 440.211 339.913 459.391 342.246 486.104C294.301 508.03 242.504 515.559 191.534 528.534C156.27 538.217 117.68 536.886 84.1506 552.789C99.765 563.595 118.853 562.31 136.514 556.857C150.678 572.094 172.306 573.19 191.366 568.423C191.178 572.094 190.997 575.766 190.593 579.632C203.011 580.876 215.443 581.703 227.881 582.537C228.943 585.866 229.999 589.188 231.256 592.731C249.429 597.331 266.157 606.355 284.337 610.954C298.685 614.337 303.425 629.924 312.979 639.203C332.773 656.357 345.049 680.712 352.169 705.821C353.494 712.028 360.13 714.2 365.099 717.111C368.581 729.154 371.856 741.386 377.416 752.716C380.603 746.328 383.81 739.537 385.598 732.469C398.715 671.144 406.347 608.923 420.062 547.833C420.304 539.051 433.247 537.861 438.289 543.435C460.692 565.632 494.537 567.75 520.066 584.79C529.552 591.407 538.824 598.218 548.97 603.84C642.727 642.942 723.361 707.152 818.483 743.45C833.765 748.722 844.254 763.778 860.713 766.037C877.575 768.324 889.818 781.012 903.709 789.485C904.153 784.798 904.784 780.333 905.228 775.646C917.149 786.681 928.168 799.309 943.175 806C940.076 794.387 934.919 783.077 929.116 772.352C938.603 778.968 948.09 785.585 958 791.812C950.678 762.601 930.165 739.469 914.648 714.549C924.753 720.991 935.073 727.238 945.629 732.886C936.552 706.036 914.412 686.71 896.649 665.771C856.8 620.388 810.933 580.843 767.224 538.95C734.219 511.918 693.966 494.953 653.989 480.459C620.352 466.079 586.923 451.505 554.671 433.921C560.117 415.456 564.978 403.771 573.349 392.106C576.858 395.557 580.153 399.2 583.871 402.456C582.755 392.172 579.037 380.732 567.93 377.921C540.128 361.381 506.532 386.691 479.86 367.957C468.706 362.075 462.13 350.492 454.849 340.714C434.215 311.851 414.24 281.999 398.043 250.291C376.764 213.826 349.89 178.92 312.73 157.202C271.489 131.391 232.466 102.01 189.235 79.1675C151.953 59.8989 119.125 33.4892 83.214 11.4253C86.768 26.1294 98.3019 36.7357 106.703 48.6155C75.5742 33.1348 47.375 12.2779 14.8567 0ZM241.583 156.581C243.022 155.351 244.898 154.676 247.191 154.92C261.552 154.008 276.068 154.126 290.227 157.295C305.18 160.913 312.992 176.445 325.915 183.848C334.837 189.413 346.434 190.611 353.797 198.756C367.734 218.485 373.671 242.72 388.684 261.479C407.308 285.536 426.154 309.399 443.305 334.404C454.997 349.928 464.598 370.461 485.635 375.204C512.045 382.877 538.474 390.143 565.368 396.205C559.559 410.027 553.555 423.636 549.36 437.949C590.164 460.26 632.77 479.389 673.386 501.485C692.157 514.502 716.247 511.421 735.046 524.029C748.291 533.086 758.927 545.284 771.083 555.714C778.076 563.023 788.033 568.436 790.588 578.59C794.582 588.609 784.127 597.29 780.859 605.306C784.14 605.064 787.213 605.017 790.494 604.768C790.352 607.626 789.996 610.679 790.043 613.745C750.16 621.76 713.437 599.657 677.736 585.583C641.557 568.82 602.797 558.686 564.931 546.959C546.697 535.4 524.933 532.871 503.95 531.197C502.941 523.834 502.383 515.603 493.112 514.898C483.84 514.192 460.315 512.221 445.752 521.104C419.592 536.966 397.996 559.607 370.881 573.997C351.342 584.259 332.578 595.387 313.981 607.128C306.477 601.843 298.564 596.53 290.651 591.225C298.9 553.387 314.875 516.343 343.422 489.756C352.418 477.73 361.226 465.58 360.291 446.468C358.194 429.347 356.304 426.305 355.094 416.492C353.723 407.216 352.775 397.554 348.505 388.951C344.774 381.807 337.015 377.529 334.547 369.63C330.715 351.542 322.264 335.247 314.747 320.147C301.576 297.389 297.024 269.95 279.651 249.435C265.653 222.747 245.18 198.802 238.712 168.812C237.374 164.666 238.417 159.285 241.583 156.581ZM549.83 378.878C551.504 377.323 552.903 379.443 554.429 382.742C551.968 386.914 548.6 387.004 546.784 382.412C547.349 381.316 548.156 379.397 548.714 378.878H549.83Z" fill="#20B2FF"/>
</svg>
